<svg fill="none" height="55" viewBox="0 0 78 55" width="78" xmlns="http://www.w3.org/2000/svg"><path d="m32.9051 0c-16.8271 2.62832-32.133127 15.4779-32.133127 33.7788 0 12.6548 7.130117 21.2212 17.397527 21.2212 10.8378 0 17.2073-9.4425 17.2073-21.0265-9.0315-.3894-15.2109-6.1328-15.2109-14.3098 0-8.0796 5.9893-13.43361 14.2602-15.18582zm42.4955 0c-16.8271 2.62832-32.1331 15.4779-32.1331 33.7788 0 12.6548 7.1301 21.2212 17.3975 21.2212 10.8378 0 17.2074-9.4425 17.2074-21.0265-9.0315-.3894-15.306-6.1328-15.306-14.3098 0-8.0796 5.9893-13.43361 14.2602-15.18582z" fill="#ff732b"/></svg>