<svg fill="none" height="13" viewBox="0 0 12 13" width="12" xmlns="http://www.w3.org/2000/svg" xmlns:xlink="http://www.w3.org/1999/xlink"><clipPath id="a"><path d="m0 .5h12v12h-12z"/></clipPath><g clip-path="url(#a)"><path d="m6 .5c-3.30844 0-6 2.69156-6 6s2.69156 6 6 6 6-2.69156 6-6-2.69156-6-6-6zm-.35156 2.94507c-.53485-.02298-1.0643-.09815-1.56986-.22037.08075-.19134.16837-.37509.26285-.54922.38763-.7143.86353-1.21555 1.30701-1.3971zm0 .70367v1.9997h-2.19589c.03094-.78049.16397-1.5553.38397-2.26007.58301.14685 1.19504.23574 1.81192.26037zm0 2.70282v1.9997c-.61688.02463-1.22891.11352-1.81192.26037-.22-.70477-.35303-1.47958-.38397-2.26007zm0 2.70337v2.16667c-.44348-.1815-.91938-.6828-1.30701-1.3971-.09448-.1741-.1821-.35786-.26285-.5492.50556-.12222 1.03491-.19739 1.56986-.22037zm.70312 0c.53485.02298 1.0643.09815 1.56986.22037-.08075.19134-.16837.3751-.26285.5492-.38763.7143-.86353 1.2156-1.30701 1.3971zm0-.70367v-1.9997h2.19589c-.03094.78049-.16397 1.5553-.38397 2.26007-.58301-.14685-1.19504-.23574-1.81192-.26037zm0-2.70282v-1.9997c.61688-.02463 1.22891-.11352 1.81192-.26037.22.70477.35303 1.47958.38397 2.26007zm0-2.70337v-2.16669c.44348.18155.91938.6828 1.30701 1.3971.09448.17413.1821.35788.26285.54922-.50556.12222-1.03501.19739-1.56986.22037zm1.92499-1.10495c-.17606-.32446-.36731-.61048-.56891-.85446.70294.24005 1.33969.62411 1.87518 1.11667-.30542.1636-.63455.30569-.9808.42443-.09824-.23858-.20682-.46811-.32547-.68664zm-4.5531 0c-.11865.21853-.22723.44806-.32547.68664-.34625-.11874-.67538-.26092-.9808-.42443.53549-.49256 1.17224-.87662 1.87518-1.11667-.2016.24398-.39276.5299-.56891.85446zm-.56332 1.34747c-.23996.76767-.38105 1.60455-.41144 2.46085h-2.033572c.075257-1.14267.514072-2.18766 1.202182-3.0195.38186.21899.80008.40631 1.24283.55865zm-.41144 3.16397c.03039.85639.17148 1.69318.41144 2.46085-.44275.15234-.86097.33966-1.24283.55865-.68811-.83184-1.126925-1.87683-1.202182-3.0195zm.64929 3.12168c.09824.23856.20682.46806.32547.68666.17615.3244.36731.6105.56891.8544-.70294-.24-1.33969-.6241-1.87509-1.1166.30523-.1635.63446-.3057.98071-.42446zm4.87857.68666c.11865-.2186.22723-.4481.32547-.68666.34625.11876.67538.26096.9808.42446-.53549.4925-1.17224.8766-1.87518 1.1166.2016-.2439.39276-.5299.56891-.8544zm.56332-1.34749c.23996-.76767.38105-1.60455.41144-2.46085h2.03359c-.0753 1.14267-.5141 2.18766-1.2022 3.0195-.38186-.21899-.80008-.40631-1.24283-.55865zm.41144-3.16397c-.03039-.85639-.17148-1.69318-.41144-2.46085.44275-.15234.86097-.33966 1.24283-.55865.6881.83184 1.1269 1.87683 1.2022 3.0195z" fill="#6b7585"/></g></svg>