<svg fill="none" height="24" viewBox="0 0 25 24" width="25" xmlns="http://www.w3.org/2000/svg"><g stroke="#fff" stroke-linecap="round" stroke-linejoin="round"><path d="m12.2114 12.75c1.6569 0 3-1.3431 3-3 0-1.65685-1.3431-3-3-3-1.6568 0-2.99997 1.34315-2.99997 3 0 1.6569 1.34317 3 2.99997 3z"/><path d="m19.7114 9.75c0 6.75-7.5 12-7.5 12s-7.49997-5.25-7.49997-12c0-1.98912.79017-3.89678 2.1967-5.3033 1.40652-1.40652 3.31417-2.1967 5.30327-2.1967 1.9892 0 3.8968.79018 5.3033 2.1967 1.4066 1.40652 2.1967 3.31418 2.1967 5.3033z"/></g></svg>