<svg viewBox="0 0 566.93 566.93" xmlns="http://www.w3.org/2000/svg"><path d="m0 0h566.93v566.93h-566.93z" fill="#fff"/><g fill="#ff6c0e"><path d="m487.33 474.51h-407.74c-26.56 0-48.08 19.3-48.08 43.12v43.12h455.82c26.55 0 48.07-19.3 48.07-43.12v-43.12z"/><path d="m484 40.06c0 22.11-18.93 40-42.28 40s-42.31-17.93-42.31-40 18.97-40.06 42.32-40.06 42.27 17.93 42.27 40.06z"/><path d="m543.12 148.25c-33.24-43.58-95.23-52.54-138.07-14.61-8.09 7.14-14.48 16-22.89 25.44a59.27 59.27 0 0 0 -4.58-6.16c-38.85-39.69-101.7-38.57-137.79 2.33-35.07 39.75-36.67 95.92-7.55 139.42 14.44 21.56 32.9 39.74 52 57.41l3-1.6c-8.59-15-18.23-29.55-25.51-45.1-10.53-22.51-14.26-46.3-6.5-70.44 6.37-19.84 24.13-34.19 48.39-29.85 19.81 3.56 34.05 15.35 46.43 29.32 14.15 16 24.43 34.23 32.8 53.43 1.65 3.78 3.46 7.47 5.29 11.38 2.77-14.78 4.43-29.21 8.32-43.06 7.37-26.16 20.9-48.65 46.33-63.37 21.89-12.65 49.28-8.24 64.68 11 8.28 10.35 23.54 45.86 13.22 93.67-4 17.38-20.26 60.93-59.5 94.25-31.91 27.09-82.56 40.39-105.39 40.39-86.18-.01-145.8-55.69-180.5-94.1-37.61-41.53-56.56-87.32-56.56-87.32h14.74c41.21 0 74.66-31.63 74.66-70.6 0-38.81-33.45-70.36-74.66-70.36h-133.48v38.18h133.48a34.56 34.56 0 0 1 24.29 9.5 31 31 0 0 1 10 22.71 31.62 31.62 0 0 1 -10 22.93 34.56 34.56 0 0 1 -24.29 9.55h-93.24l54.76 88.06c44.55 73.75 146.87 150.15 240.83 150.15 40.38 0 67.14-10.73 90.26-23.66 71.2-37 109-114.67 115.38-125.63 12.59-21.8 22.34-44.72 24.79-69.67 2.98-30.37-3.87-58.24-23.14-83.59z"/></g><text fill="#fff" font-family="TrebuchetMS-Bold, Trebuchet MS" font-size="79.16" font-weight="700" transform="matrix(1.06 0 0 1 69.38 545.59)">Healthcare</text></svg>