<svg fill="none" height="202" viewBox="0 0 187 202" width="187" xmlns="http://www.w3.org/2000/svg"><rect fill="#eff7ff" height="202" rx="20" width="187"/><path d="m159.545 39.8521c-1.556.5167-2.248 1.0334-2.593 1.3779-.346.3445-.865 1.2057-.865 3.2727 0 1.3779-.173 10.6791 2.075 16.5355.173.5167.691.3444.864 0 .346-.5168.865-3.6172.519-3.7894-.346-.1723-1.037-.5168-1.383-1.0335s0-10.3347.173-10.6792c.173-.5167.691-.3445 1.21-.3445-.173-2.5836 0-5.3395 0-5.3395z" fill="#355977"/><path d="m168.19 45.7085h-67.429c-.692 0-1.2102.5167-1.2102 1.2057v87.1558c0 .689.5182 1.206 1.2102 1.206h67.429c.691 0 1.21-.517 1.21-1.206v-87.1558c0-.689-.519-1.2057-1.21-1.2057z" fill="#b4d8fc"/><path d="m160.41 115.468s-7.607 8.095-7.434 8.095h-43.397c-.518 0-.864-.344-.864-.861v-64.5918c0-.5167.346-.8612.864-.8612h49.967c.518 0 .864.3445.864.8612z" fill="#eff7ff"/><path d="m146.749 43.6416h-24.378c-.518 0-1.037.5167-1.037 1.0335 0 .5167.519 1.0334 1.037 1.0334h1.902c-.173.3445-.346.8613-.346 1.378 0 1.378 1.211 2.5837 2.594 2.5837h16.252c1.383 0 2.593-1.2057 2.593-2.5837 0-.5167-.173-1.0335-.346-1.378h1.902c.519 0 1.038-.5167 1.038-1.0334-.173-.689-.692-1.0335-1.211-1.0335z" fill="#ff732b"/><g fill="#b4d8fc"><path d="m152.802 66.895h-36.654v1.5502h36.654z"/><path d="m152.802 73.2681h-36.654v1.5502h36.654z"/><path d="m152.802 79.9854h-36.654v1.5502h36.654z"/><path d="m152.802 86.3579h-36.654v1.5502h36.654z"/><path d="m152.802 93.248h-36.654v1.5502h36.654z"/><path d="m152.802 99.6216h-36.654v1.5504h36.654z"/><path d="m152.802 106.339h-36.654v1.55h36.654z"/></g><path d="m153.84 115.468h6.57l-7.607 8.096v-7.235c.173-.516.518-.861 1.037-.861z" fill="#9fc3d3"/><path d="m163.522 103.583s-.519 1.206-.865 1.206c-.345 0-.864-1.378-.864-1.378z" fill="#355977"/><path d="m163.521 103.755c.692-1.378 1.211-6.0285 1.211-6.8898h-4.15c0 1.378.865 5.8568 1.21 6.8898z" fill="#eff7ff"/><path d="m164.733 97.0377c.346-2.067 1.21-32.5543 1.21-32.5543h-6.916s1.211 30.3151 1.556 32.5543z" fill="#355977"/><path d="m162.486 40.197 3.457-.1722c0-.3445.173-4.3062-3.457-4.4784-3.804 0-3.458 4.1339-3.458 4.4784z" fill="#b4d8fc"/><path d="m162.484 63.6226 1.037.1722v-.1722h2.594c0-.1723.172-23.0808 0-24.1143-1.556 0-2.767 0-3.458 0-.692 0-1.902 0-3.458 0-.173 1.0335.173 23.7698.173 23.942l2.42.3445v.1723z" fill="#355977"/><path d="m159.026 64.8277-.172-1.8947s0-.1723.172-.1723h7.262s.173 0 .173.1723v1.7224s0 .1723-.173.1723z" fill="#eff7ff"/><path d="m91.252 99.2772c0-6.0286 4.841-10.8514 10.892-10.8514 6.052 0 10.893 4.8228 10.893 10.8514 0 6.0288-4.841 10.8518-10.893 10.8518-6.051 0-10.892-4.823-10.892-10.8518z" fill="#205f89"/><path d="m107.505 109.612c2.766 7.579 6.224 17.914 6.224 28.765 0 5.34-.865 10.852-2.939 16.191-1.556 3.962-3.977 7.234-6.916 9.99-2.248 4.995-6.5701 9.302-11.584 12.402-5.8784 3.789-13.1399 6.029-20.0556 6.029-3.6308 0-7.0887-.517-10.3736-1.895-9.3363-3.617-14.1773-9.646-16.4249-15.674-2.4205-5.857-2.2477-11.541-2.2477-14.641l4.8411-.172c-.3458 3.1-1.2103 8.44.8644 13.607 2.0748 5.167 6.0513 10.335 14.3502 13.607 2.7663 1.034 5.8784 1.55 8.9905 1.55 6.2241 0 12.7941-2.066 18.1538-5.511 1.9018-1.206 3.6308-2.584 5.0139-3.962-3.8037 1.722-7.9531 2.584-11.9296 2.584-4.3224 0-8.6447-1.034-12.1026-3.445-3.6308-2.239-6.3971-5.857-7.9531-10.679-1.0374-2.929-1.3832-5.857-1.3832-8.613 0-6.545 2.7663-11.885 7.0887-15.502 4.3223-3.617 10.0278-5.684 16.0791-5.684 1.7289 0 3.6308.172 5.3597.517 9.1633 1.895 16.2519 11.024 16.2519 22.736 0 1.206 0 2.412-.173 3.79.346-.862.865-1.551 1.21-2.412 1.902-4.995 2.594-9.99 2.594-14.985 0-10.335-3.285-20.325-6.051-27.904zm-36.308 27.559c-3.4579 3.101-5.7055 7.235-5.7055 12.747 0 2.239.3458 4.65 1.2103 7.406 1.3831 4.134 3.6307 6.89 6.5699 8.785 2.9392 1.894 6.3971 2.756 10.2008 2.756 6.0512 0 12.4483-2.412 17.2895-6.546.173-.517.346-1.033.518-1.55 1.038-3.1 1.384-6.029 1.384-8.784 0-10.335-6.0516-17.742-13.1403-19.12-1.556-.344-3.1121-.516-4.6681-.516-5.1868.172-10.2007 1.722-13.6586 4.822z" fill="#355977"/><path d="m101.971 86.5317c-7.0887 0-12.9671 5.8564-12.9671 12.9184 0 7.0619 5.8784 12.9179 12.9671 12.9179 7.089 0 12.967-5.856 12.967-12.9179 0-7.2343-5.706-12.9184-12.967-12.9184zm.173 22.5643c-5.5328 0-10.028-4.479-10.028-9.8182 0-5.5118 4.4952-9.9901 10.028-9.9901 5.532 0 9.855 4.4783 9.855 9.9901.173 5.5122-4.323 9.8182-9.855 9.8182z" fill="#cde3e8"/><path d="m102.317 91.1826c-4.322 0-7.7799 3.4449-7.7799 7.751 0 4.3064 3.4579 7.7514 7.7799 7.7514 4.323 0 7.781-3.445 7.781-7.7514 0-4.3061-3.458-7.751-7.781-7.751zm0 12.9184c-2.9389 0-5.1865-2.239-5.1865-5.1674 0-2.9281 2.2476-5.1673 5.1865-5.1673 2.94 0 5.187 2.2392 5.187 5.1673 0 2.9284-2.247 5.1674-5.187 5.1674z" fill="#b4d8fc"/><path d="m106.639 98.9336c0 2.4114-1.902 4.3064-4.323 4.3064-2.42 0-4.3219-1.895-4.3219-4.3064 0-2.4115 1.9019-4.3062 4.3219-4.3062 2.421 0 4.323 1.8947 4.323 4.3062z" fill="#b4d8fc"/><path d="m26.2445 110.473c-.5187-1.205-2.4205-1.033-4.1495-.344-1.3831.517-.6915 2.067-.3458 3.445.1729 1.033 3.1121 11.885 5.7055 17.396 2.2476 4.823 7.4345 12.919 18.8454 12.402 7.7802-.344 12.1026-3.445 16.0791-12.229 3.9766-8.785 6.57-18.775 6.7429-19.636 0-.861-.3458-1.378-1.3832-1.723-1.2102-.172-2.2476-.516-2.5934.173s-5.1868 17.569-7.7802 21.875c-2.5934 4.134-5.1868 7.234-11.0652 7.234s-12.1025-1.895-15.9062-15.158c-3.6307-11.023-4.1494-13.435-4.1494-13.435z" fill="#355977"/><path d="m24.1696 108.063c-1.9019-6.545-4.6682-17.5686-4.6682-27.0421 0-.689 0-1.2057 0-1.7224.5187-11.1959 5.3597-14.9853 8.6447-15.6743 1.3832-.3445 2.7663-.3445 4.3224-.3445 2.5934 0 5.3597.3445 7.2615.5167l.1729-1.5502c-1.9019-.1722-4.6681-.5167-7.4344-.5167-1.5561 0-3.285.1722-4.8411.3445-4.3223.8612-9.5091 5.6841-10.0278 17.0522v1.8947c0 9.9902 2.4205 19.8081 4.4952 27.5591z" fill="#b4d8fc"/><path d="m37.4825 64.657c-.3458-.1723-.3458-.689-.3458-1.5502 0-.8613.1729-2.067.5187-2.2392.5187-.1723 2.4205-.8613 3.8037-.8613 1.3831.1723 2.9392.689 3.112 2.5837.1729 1.5502-.5186 3.2727-3.112 3.2727-2.2477.1722-3.9766-1.2057-3.9766-1.2057z" fill="#355977"/><path d="m73.7904 79.4701c-.1729-11.5404-5.1868-16.3633-9.5091-17.3967-1.556-.3445-3.1121-.5168-4.841-.5168-2.7663 0-5.5326.1723-7.4344.3445l.1729 1.5502c1.9018-.1722 4.6681-.3445 7.2615-.3445 1.556 0 3.1121.1723 4.3223.5168 3.285.689 7.9531 4.6506 8.126 15.8465v1.7225c-.1729 9.6457-3.4579 20.4974-5.5326 27.0424.3458 0 1.729.344 2.2476.517 2.0748-6.718 4.8411-17.5692 5.1868-27.3872 0-.689 0-1.378 0-1.8947z" fill="#b4d8fc"/><path d="m54.9451 64.4843c.3458-.1723.3458-.689.3458-1.5502s-.1729-2.0669-.6916-2.2392c-.5186-.1722-2.4205-.8612-3.9765-.689-1.3832.1723-2.9392.8613-2.9392 2.7559 0 1.5502.6916 3.1005 3.1121 3.1005 2.5934 0 4.1494-1.378 4.1494-1.378z" fill="#355977"/><path d="m39.3828 144.578c.1729.345 3.8037 9.129 3.8037 9.129h4.4952s3.4579-8.957 3.4579-9.129c-1.2103.345-3.285.861-4.841.861-2.9392-.172-4.6682-.172-6.9158-.861z" fill="#355977"/><path d="m80.0132 74.1302c-.6916-.3445-1.3832-1.0335-1.9019-1.5502 1.5561 8.2677 3.8037 18.6024 3.8037 34.449h2.0747c-.3458-15.8466 2.2476-26.3535 3.6308-34.6213-.5187.5167-1.3832 1.5502-2.5934 2.067-1.3832.5167-3.285.6889-5.0139-.3445z" fill="#355977"/><path d="m82.0889 108.923c0 .517.3458 1.034.6916.861h.1729c.3458 0 .6916-.516.6916-1.033l.1728-2.239h-1.9018z" fill="#b4d8fc"/><path d="m85.2004 30.724c-.5187 1.7225-.1729-2.2391-2.7663-2.2391-2.5934.1722-3.6308 4.4783-4.1495 2.7559-.3458-1.0335-2.5934-1.0335-3.4579-1.7225-.1728.689-.1728 1.378-.3457 2.067-.8645 13.4351 2.9392 38.755 3.2849 40.822 0 0 1.0374 1.0335 2.2477 1.7224 1.7289 1.0335 3.6307.8613 4.841.1723 1.556-.8612 2.5934-2.2392 2.5934-2.2392.3458-2.0669 3.4578-27.3869 2.2476-40.822 0-.5168-.1729-1.0335-.1729-1.5502-1.556.689-3.8037-.5168-4.3223 1.0334zm.6915 12.0572.1729 12.5739c0 .8612-.6915 1.5502-1.3831 1.5502h-3.9766c-.8644 0-1.556-.689-1.556-1.5502l-.1729-12.5739c0-.8612.6916-1.5502 1.3831-1.5502h3.9766c.8645.1722 1.556.689 1.556 1.5502z" fill="#b4d8fc"/><path d="m82.2622 51.0491h-.6916v.689h.6916zm0-2.4114h-.6916v.689h.6916zm-.8644 6.7175h2.0747c.6915 0 1.2102-.5167 1.2102-1.0334v-10.3347c0-.5168-.5187-1.0335-1.2102-1.0335h-2.0747c-.6916 0-1.2103.5167-1.2103 1.0335v10.3347c.1729.5167.6916 1.0334 1.2103 1.0334zm-.1729-8.6122.3457-.3445h.1729v.3445h-.1729v.689h.6916v-.3445h.3458v.3445h.6916v-.689h-.1729v-.3445h.1729l.3458.3445v.8612l-.3458.3445h-.8645l-.1729-.1722-.1729.1722h-.8644l-.3458-.3445zm0 1.8947.3457-.3445h1.9019l.3458.3445v.8612l-.5187.1723h-.1729v-.3445h.1729v-.689h-.6916v.689l-.3458.3445h-.8644l-.3458-.3445v-.689zm0 1.378h.3457v.3444h-.3457zm0 1.0334.3457-.3445h1.9019l.3458.3445v.8612l-.5187.1723h-.1729v-.3445h.1729v-.689h-.6916v.689l-.3458.3445h-.8644l-.3458-.3445v-.689z" fill="#cde3e8"/><path d="m79.3214 34.5138c0-1.7225 1.3832-2.9282 2.9392-2.9282 1.7289 0 3.1121 1.3779 3.1121 3.1004 0 .3445.1729.3445 0 .689.3458-.689.3458-1.378.5187-2.067.5186-1.5502 2.5934-3.2726 3.6307-3.4449-.8644-9.8179-3.8036-10.8514-7.0886-10.8514-3.4579 0-6.7429 1.2057-7.6073 10.8514.1729.1723 3.1121 1.8947 3.4578 3.1004.3458.8613.6916 2.2392 1.0374 2.4115 0 0 0-.3445 0-.8612z" fill="#ff7c24"/><path d="m83.8171 34.6861c0 .6889-.6916 1.3779-1.3832 1.3779-.6915 0-1.3831-.689-1.3831-1.3779 0-.689.6916-1.378 1.3831-1.378.8645 0 1.3832.689 1.3832 1.378z" fill="#ff7c24"/></svg>