<svg fill="none" height="24" viewBox="0 0 24 24" width="24" xmlns="http://www.w3.org/2000/svg"><path d="m22.0004 16.9201v3c.0012.2785-.0559.5542-.1675.8093-.1115.2552-.2752.4843-.4804.6726-.2052.1882-.4475.3316-.7113.4208-.2639.0892-.5434.1224-.8208.0973-3.0771-.3344-6.033-1.3859-8.63-3.07-2.41615-1.5353-4.46464-3.5838-5.99998-6-1.69002-2.6088-2.74176-5.57901-3.07-8.67-.02499-.27654.00788-.55524.0965-.81838.08863-.26313.23107-.50493.41827-.71.18719-.20507.41504-.36891.66902-.4811.25399-.11219.52855-.17026.80621-.17052h3c.48531-.00478.95579.16708 1.32376.48353s.60832.75591.67624 1.23647c.12662.96006.36145 1.90272.7 2.81.13455.35792.16366.74691.08391 1.12088-.07976.37396-.26505.71723-.53391.98912l-1.27 1.27c1.42356 2.5035 3.49648 4.5764 5.99998 6l1.27-1.27c.2719-.2689.6152-.4542.9891-.5339.374-.0798.763-.0506 1.1209.0839.9073.3385 1.85.5734 2.81.7.4858.0685.9294.3132 1.2466.6875.3171.3743.4856.8521.4734 1.3425z" stroke="#636363" stroke-linecap="round" stroke-linejoin="round"/></svg>