<svg fill="none" height="65" viewBox="0 0 93 65" width="93" xmlns="http://www.w3.org/2000/svg"><path d="m38.7596 0c-20.2972 3.10619-38.7596 18.292-38.7596 39.9204 0 14.9557 8.60049 25.0796 20.9852 25.0796 13.0728 0 20.7559-11.1593 20.7559-24.8496-10.894-.4601-18.3478-7.2477-18.3478-16.9115 0-9.5486 7.2245-15.87607 17.201-17.94686zm51.2589 0c-20.2972 3.10619-38.7596 18.292-38.7596 39.9204 0 14.9557 8.6005 25.0796 20.9852 25.0796 13.0728 0 20.7559-11.1593 20.7559-24.8496-10.894-.4601-18.4624-7.2477-18.4624-16.9115 0-9.5486 7.2244-15.87607 17.201-17.94686z" fill="#eff7ff"/></svg>